<svg width="576" height="14" viewBox="0 0 576 14" fill="none" xmlns="http://www.w3.org/2000/svg">
<rect opacity="0.2" x="41" y="5" width="496" height="6" rx="3" fill="white"/>
<path opacity="0.7" d="M6.6 7.704C6.6 8.456 6.518 9.108 6.354 9.66C6.194 10.208 5.974 10.662 5.694 11.022C5.414 11.382 5.082 11.65 4.698 11.826C4.318 12.002 3.91 12.09 3.474 12.09C3.034 12.09 2.624 12.002 2.244 11.826C1.868 11.65 1.54 11.382 1.26 11.022C0.98 10.662 0.76 10.208 0.6 9.66C0.44 9.108 0.36 8.456 0.36 7.704C0.36 6.952 0.44 6.3 0.6 5.748C0.76 5.196 0.98 4.74 1.26 4.38C1.54 4.016 1.868 3.746 2.244 3.57C2.624 3.394 3.034 3.306 3.474 3.306C3.91 3.306 4.318 3.394 4.698 3.57C5.082 3.746 5.414 4.016 5.694 4.38C5.974 4.74 6.194 5.196 6.354 5.748C6.518 6.3 6.6 6.952 6.6 7.704ZM5.49 7.704C5.49 7.048 5.434 6.498 5.322 6.054C5.214 5.606 5.066 5.246 4.878 4.974C4.694 4.702 4.48 4.508 4.236 4.392C3.992 4.272 3.738 4.212 3.474 4.212C3.21 4.212 2.956 4.272 2.712 4.392C2.468 4.508 2.254 4.702 2.07 4.974C1.886 5.246 1.738 5.606 1.626 6.054C1.518 6.498 1.464 7.048 1.464 7.704C1.464 8.36 1.518 8.91 1.626 9.354C1.738 9.798 1.886 10.156 2.07 10.428C2.254 10.7 2.468 10.896 2.712 11.016C2.956 11.132 3.21 11.19 3.474 11.19C3.738 11.19 3.992 11.132 4.236 11.016C4.48 10.896 4.694 10.7 4.878 10.428C5.066 10.156 5.214 9.798 5.322 9.354C5.434 8.91 5.49 8.36 5.49 7.704ZM13.5609 7.704C13.5609 8.456 13.4789 9.108 13.3149 9.66C13.1549 10.208 12.9349 10.662 12.6549 11.022C12.3749 11.382 12.0429 11.65 11.6589 11.826C11.2789 12.002 10.8709 12.09 10.4349 12.09C9.99494 12.09 9.58494 12.002 9.20494 11.826C8.82894 11.65 8.50094 11.382 8.22094 11.022C7.94094 10.662 7.72094 10.208 7.56094 9.66C7.40094 9.108 7.32094 8.456 7.32094 7.704C7.32094 6.952 7.40094 6.3 7.56094 5.748C7.72094 5.196 7.94094 4.74 8.22094 4.38C8.50094 4.016 8.82894 3.746 9.20494 3.57C9.58494 3.394 9.99494 3.306 10.4349 3.306C10.8709 3.306 11.2789 3.394 11.6589 3.57C12.0429 3.746 12.3749 4.016 12.6549 4.38C12.9349 4.74 13.1549 5.196 13.3149 5.748C13.4789 6.3 13.5609 6.952 13.5609 7.704ZM12.4509 7.704C12.4509 7.048 12.3949 6.498 12.2829 6.054C12.1749 5.606 12.0269 5.246 11.8389 4.974C11.6549 4.702 11.4409 4.508 11.1969 4.392C10.9529 4.272 10.6989 4.212 10.4349 4.212C10.1709 4.212 9.91694 4.272 9.67294 4.392C9.42894 4.508 9.21494 4.702 9.03094 4.974C8.84694 5.246 8.69894 5.606 8.58694 6.054C8.47894 6.498 8.42494 7.048 8.42494 7.704C8.42494 8.36 8.47894 8.91 8.58694 9.354C8.69894 9.798 8.84694 10.156 9.03094 10.428C9.21494 10.7 9.42894 10.896 9.67294 11.016C9.91694 11.132 10.1709 11.19 10.4349 11.19C10.6989 11.19 10.9529 11.132 11.1969 11.016C11.4409 10.896 11.6549 10.7 11.8389 10.428C12.0269 10.156 12.1749 9.798 12.2829 9.354C12.3949 8.91 12.4509 8.36 12.4509 7.704ZM14.6719 11.34C14.6719 11.236 14.6899 11.138 14.7259 11.046C14.7659 10.954 14.8179 10.874 14.8819 10.806C14.9499 10.738 15.0299 10.684 15.1219 10.644C15.2139 10.604 15.3119 10.584 15.4159 10.584C15.5199 10.584 15.6179 10.604 15.7099 10.644C15.8019 10.684 15.8819 10.738 15.9499 10.806C16.0179 10.874 16.0719 10.954 16.1119 11.046C16.1519 11.138 16.1719 11.236 16.1719 11.34C16.1719 11.448 16.1519 11.548 16.1119 11.64C16.0719 11.728 16.0179 11.806 15.9499 11.874C15.8819 11.942 15.8019 11.994 15.7099 12.03C15.6179 12.07 15.5199 12.09 15.4159 12.09C15.3119 12.09 15.2139 12.07 15.1219 12.03C15.0299 11.994 14.9499 11.942 14.8819 11.874C14.8179 11.806 14.7659 11.728 14.7259 11.64C14.6899 11.548 14.6719 11.448 14.6719 11.34ZM14.6719 6.84C14.6719 6.736 14.6899 6.638 14.7259 6.546C14.7659 6.454 14.8179 6.374 14.8819 6.306C14.9499 6.238 15.0299 6.184 15.1219 6.144C15.2139 6.104 15.3119 6.084 15.4159 6.084C15.5199 6.084 15.6179 6.104 15.7099 6.144C15.8019 6.184 15.8819 6.238 15.9499 6.306C16.0179 6.374 16.0719 6.454 16.1119 6.546C16.1519 6.638 16.1719 6.736 16.1719 6.84C16.1719 6.948 16.1519 7.048 16.1119 7.14C16.0719 7.228 16.0179 7.306 15.9499 7.374C15.8819 7.442 15.8019 7.496 15.7099 7.536C15.6179 7.572 15.5199 7.59 15.4159 7.59C15.3119 7.59 15.2139 7.572 15.1219 7.536C15.0299 7.496 14.9499 7.442 14.8819 7.374C14.8179 7.306 14.7659 7.228 14.7259 7.14C14.6899 7.048 14.6719 6.948 14.6719 6.84ZM23.5219 7.704C23.5219 8.456 23.4399 9.108 23.2759 9.66C23.1159 10.208 22.8959 10.662 22.6159 11.022C22.3359 11.382 22.0039 11.65 21.6199 11.826C21.2399 12.002 20.8319 12.09 20.3959 12.09C19.9559 12.09 19.5459 12.002 19.1659 11.826C18.7899 11.65 18.4619 11.382 18.1819 11.022C17.9019 10.662 17.6819 10.208 17.5219 9.66C17.3619 9.108 17.2819 8.456 17.2819 7.704C17.2819 6.952 17.3619 6.3 17.5219 5.748C17.6819 5.196 17.9019 4.74 18.1819 4.38C18.4619 4.016 18.7899 3.746 19.1659 3.57C19.5459 3.394 19.9559 3.306 20.3959 3.306C20.8319 3.306 21.2399 3.394 21.6199 3.57C22.0039 3.746 22.3359 4.016 22.6159 4.38C22.8959 4.74 23.1159 5.196 23.2759 5.748C23.4399 6.3 23.5219 6.952 23.5219 7.704ZM22.4119 7.704C22.4119 7.048 22.3559 6.498 22.2439 6.054C22.1359 5.606 21.9879 5.246 21.7999 4.974C21.6159 4.702 21.4019 4.508 21.1579 4.392C20.9139 4.272 20.6599 4.212 20.3959 4.212C20.1319 4.212 19.8779 4.272 19.6339 4.392C19.3899 4.508 19.1759 4.702 18.9919 4.974C18.8079 5.246 18.6599 5.606 18.5479 6.054C18.4399 6.498 18.3859 7.048 18.3859 7.704C18.3859 8.36 18.4399 8.91 18.5479 9.354C18.6599 9.798 18.8079 10.156 18.9919 10.428C19.1759 10.7 19.3899 10.896 19.6339 11.016C19.8779 11.132 20.1319 11.19 20.3959 11.19C20.6599 11.19 20.9139 11.132 21.1579 11.016C21.4019 10.896 21.6159 10.7 21.7999 10.428C21.9879 10.156 22.1359 9.798 22.2439 9.354C22.3559 8.91 22.4119 8.36 22.4119 7.704ZM30.4828 7.704C30.4828 8.456 30.4008 9.108 30.2368 9.66C30.0768 10.208 29.8568 10.662 29.5768 11.022C29.2968 11.382 28.9648 11.65 28.5808 11.826C28.2008 12.002 27.7928 12.09 27.3568 12.09C26.9168 12.09 26.5068 12.002 26.1268 11.826C25.7508 11.65 25.4228 11.382 25.1428 11.022C24.8628 10.662 24.6428 10.208 24.4828 9.66C24.3228 9.108 24.2428 8.456 24.2428 7.704C24.2428 6.952 24.3228 6.3 24.4828 5.748C24.6428 5.196 24.8628 4.74 25.1428 4.38C25.4228 4.016 25.7508 3.746 26.1268 3.57C26.5068 3.394 26.9168 3.306 27.3568 3.306C27.7928 3.306 28.2008 3.394 28.5808 3.57C28.9648 3.746 29.2968 4.016 29.5768 4.38C29.8568 4.74 30.0768 5.196 30.2368 5.748C30.4008 6.3 30.4828 6.952 30.4828 7.704ZM29.3728 7.704C29.3728 7.048 29.3168 6.498 29.2048 6.054C29.0968 5.606 28.9488 5.246 28.7608 4.974C28.5768 4.702 28.3628 4.508 28.1188 4.392C27.8748 4.272 27.6208 4.212 27.3568 4.212C27.0928 4.212 26.8388 4.272 26.5948 4.392C26.3508 4.508 26.1368 4.702 25.9528 4.974C25.7688 5.246 25.6208 5.606 25.5088 6.054C25.4008 6.498 25.3468 7.048 25.3468 7.704C25.3468 8.36 25.4008 8.91 25.5088 9.354C25.6208 9.798 25.7688 10.156 25.9528 10.428C26.1368 10.7 26.3508 10.896 26.5948 11.016C26.8388 11.132 27.0928 11.19 27.3568 11.19C27.6208 11.19 27.8748 11.132 28.1188 11.016C28.3628 10.896 28.5768 10.7 28.7608 10.428C28.9488 10.156 29.0968 9.798 29.2048 9.354C29.3168 8.91 29.3728 8.36 29.3728 7.704Z" fill="white"/>
<path opacity="0.7" d="M551.6 7.704C551.6 8.456 551.518 9.108 551.354 9.66C551.194 10.208 550.974 10.662 550.694 11.022C550.414 11.382 550.082 11.65 549.698 11.826C549.318 12.002 548.91 12.09 548.474 12.09C548.034 12.09 547.624 12.002 547.244 11.826C546.868 11.65 546.54 11.382 546.26 11.022C545.98 10.662 545.76 10.208 545.6 9.66C545.44 9.108 545.36 8.456 545.36 7.704C545.36 6.952 545.44 6.3 545.6 5.748C545.76 5.196 545.98 4.74 546.26 4.38C546.54 4.016 546.868 3.746 547.244 3.57C547.624 3.394 548.034 3.306 548.474 3.306C548.91 3.306 549.318 3.394 549.698 3.57C550.082 3.746 550.414 4.016 550.694 4.38C550.974 4.74 551.194 5.196 551.354 5.748C551.518 6.3 551.6 6.952 551.6 7.704ZM550.49 7.704C550.49 7.048 550.434 6.498 550.322 6.054C550.214 5.606 550.066 5.246 549.878 4.974C549.694 4.702 549.48 4.508 549.236 4.392C548.992 4.272 548.738 4.212 548.474 4.212C548.21 4.212 547.956 4.272 547.712 4.392C547.468 4.508 547.254 4.702 547.07 4.974C546.886 5.246 546.738 5.606 546.626 6.054C546.518 6.498 546.464 7.048 546.464 7.704C546.464 8.36 546.518 8.91 546.626 9.354C546.738 9.798 546.886 10.156 547.07 10.428C547.254 10.7 547.468 10.896 547.712 11.016C547.956 11.132 548.21 11.19 548.474 11.19C548.738 11.19 548.992 11.132 549.236 11.016C549.48 10.896 549.694 10.7 549.878 10.428C550.066 10.156 550.214 9.798 550.322 9.354C550.434 8.91 550.49 8.36 550.49 7.704ZM557.883 10.986C557.999 10.986 558.091 11.02 558.159 11.088C558.227 11.156 558.261 11.244 558.261 11.352V12H552.525V11.634C552.525 11.558 552.541 11.48 552.573 11.4C552.605 11.32 552.655 11.246 552.723 11.178L555.477 8.412C555.705 8.18 555.913 7.958 556.101 7.746C556.289 7.53 556.449 7.314 556.581 7.098C556.713 6.882 556.815 6.664 556.887 6.444C556.959 6.22 556.995 5.982 556.995 5.73C556.995 5.478 556.955 5.258 556.875 5.07C556.795 4.878 556.685 4.72 556.545 4.596C556.409 4.472 556.247 4.38 556.059 4.32C555.871 4.256 555.669 4.224 555.453 4.224C555.233 4.224 555.031 4.256 554.847 4.32C554.663 4.384 554.499 4.474 554.355 4.59C554.215 4.702 554.097 4.836 554.001 4.992C553.905 5.148 553.837 5.32 553.797 5.508C553.749 5.648 553.683 5.742 553.599 5.79C553.519 5.834 553.405 5.846 553.257 5.826L552.699 5.73C552.755 5.338 552.863 4.992 553.023 4.692C553.187 4.388 553.391 4.134 553.635 3.93C553.883 3.726 554.165 3.572 554.481 3.468C554.797 3.36 555.139 3.306 555.507 3.306C555.871 3.306 556.211 3.36 556.527 3.468C556.843 3.576 557.117 3.734 557.349 3.942C557.581 4.146 557.763 4.396 557.895 4.692C558.027 4.988 558.093 5.324 558.093 5.7C558.093 6.02 558.045 6.318 557.949 6.594C557.853 6.866 557.723 7.126 557.559 7.374C557.395 7.622 557.205 7.864 556.989 8.1C556.777 8.336 556.551 8.574 556.311 8.814L554.043 11.13C554.203 11.086 554.365 11.052 554.529 11.028C554.693 11 554.851 10.986 555.003 10.986H557.883ZM559.672 11.34C559.672 11.236 559.69 11.138 559.726 11.046C559.766 10.954 559.818 10.874 559.882 10.806C559.95 10.738 560.03 10.684 560.122 10.644C560.214 10.604 560.312 10.584 560.416 10.584C560.52 10.584 560.618 10.604 560.71 10.644C560.802 10.684 560.882 10.738 560.95 10.806C561.018 10.874 561.072 10.954 561.112 11.046C561.152 11.138 561.172 11.236 561.172 11.34C561.172 11.448 561.152 11.548 561.112 11.64C561.072 11.728 561.018 11.806 560.95 11.874C560.882 11.942 560.802 11.994 560.71 12.03C560.618 12.07 560.52 12.09 560.416 12.09C560.312 12.09 560.214 12.07 560.122 12.03C560.03 11.994 559.95 11.942 559.882 11.874C559.818 11.806 559.766 11.728 559.726 11.64C559.69 11.548 559.672 11.448 559.672 11.34ZM559.672 6.84C559.672 6.736 559.69 6.638 559.726 6.546C559.766 6.454 559.818 6.374 559.882 6.306C559.95 6.238 560.03 6.184 560.122 6.144C560.214 6.104 560.312 6.084 560.416 6.084C560.52 6.084 560.618 6.104 560.71 6.144C560.802 6.184 560.882 6.238 560.95 6.306C561.018 6.374 561.072 6.454 561.112 6.546C561.152 6.638 561.172 6.736 561.172 6.84C561.172 6.948 561.152 7.048 561.112 7.14C561.072 7.228 561.018 7.306 560.95 7.374C560.882 7.442 560.802 7.496 560.71 7.536C560.618 7.572 560.52 7.59 560.416 7.59C560.312 7.59 560.214 7.572 560.122 7.536C560.03 7.496 559.95 7.442 559.882 7.374C559.818 7.306 559.766 7.228 559.726 7.14C559.69 7.048 559.672 6.948 559.672 6.84ZM568.03 11.184V12H563.422V11.184H565.264V5.322C565.264 5.146 565.27 4.968 565.282 4.788L563.752 6.102C563.7 6.146 563.648 6.174 563.596 6.186C563.544 6.194 563.496 6.194 563.452 6.186C563.408 6.178 563.366 6.162 563.326 6.138C563.29 6.114 563.262 6.088 563.242 6.06L562.906 5.598L565.468 3.384H566.338V11.184H568.03ZM572.363 11.244C572.643 11.244 572.893 11.206 573.113 11.13C573.337 11.05 573.525 10.94 573.677 10.8C573.833 10.656 573.951 10.486 574.031 10.29C574.115 10.09 574.157 9.87 574.157 9.63C574.157 9.334 574.107 9.082 574.007 8.874C573.911 8.662 573.779 8.49 573.611 8.358C573.447 8.226 573.257 8.13 573.041 8.07C572.825 8.006 572.599 7.974 572.363 7.974C572.127 7.974 571.901 8.006 571.685 8.07C571.469 8.13 571.277 8.226 571.109 8.358C570.945 8.49 570.813 8.662 570.713 8.874C570.617 9.082 570.569 9.334 570.569 9.63C570.569 9.87 570.609 10.09 570.689 10.29C570.773 10.486 570.891 10.656 571.043 10.8C571.199 10.94 571.387 11.05 571.607 11.13C571.831 11.206 572.083 11.244 572.363 11.244ZM572.363 4.134C572.107 4.134 571.881 4.172 571.685 4.248C571.493 4.324 571.331 4.428 571.199 4.56C571.071 4.692 570.973 4.846 570.905 5.022C570.841 5.198 570.809 5.386 570.809 5.586C570.809 5.782 570.837 5.972 570.893 6.156C570.949 6.34 571.039 6.504 571.163 6.648C571.287 6.788 571.447 6.902 571.643 6.99C571.843 7.074 572.083 7.116 572.363 7.116C572.643 7.116 572.881 7.074 573.077 6.99C573.277 6.902 573.439 6.788 573.563 6.648C573.687 6.504 573.777 6.34 573.833 6.156C573.889 5.972 573.917 5.782 573.917 5.586C573.917 5.386 573.883 5.198 573.815 5.022C573.751 4.846 573.653 4.692 573.521 4.56C573.393 4.428 573.231 4.324 573.035 4.248C572.843 4.172 572.619 4.134 572.363 4.134ZM573.593 7.518C574.129 7.67 574.541 7.924 574.829 8.28C575.117 8.636 575.261 9.092 575.261 9.648C575.261 10.024 575.189 10.364 575.045 10.668C574.905 10.968 574.707 11.224 574.451 11.436C574.199 11.648 573.895 11.812 573.539 11.928C573.183 12.04 572.791 12.096 572.363 12.096C571.935 12.096 571.543 12.04 571.187 11.928C570.831 11.812 570.525 11.648 570.269 11.436C570.013 11.224 569.815 10.968 569.675 10.668C569.535 10.364 569.465 10.024 569.465 9.648C569.465 9.092 569.609 8.636 569.897 8.28C570.185 7.924 570.597 7.67 571.133 7.518C570.681 7.35 570.339 7.1 570.107 6.768C569.879 6.432 569.765 6.032 569.765 5.568C569.765 5.252 569.827 4.956 569.951 4.68C570.075 4.404 570.251 4.164 570.479 3.96C570.707 3.756 570.979 3.596 571.295 3.48C571.615 3.364 571.971 3.306 572.363 3.306C572.751 3.306 573.105 3.364 573.425 3.48C573.745 3.596 574.019 3.756 574.247 3.96C574.475 4.164 574.651 4.404 574.775 4.68C574.899 4.956 574.961 5.252 574.961 5.568C574.961 6.032 574.845 6.432 574.613 6.768C574.385 7.1 574.045 7.35 573.593 7.518Z" fill="white"/>
</svg>
